<?xml version="1.0" encoding="UTF-8"?>
<svg version="1.1" viewBox="0 0 1000 1000" xmlns="http://www.w3.org/2000/svg">
<rect width="1e3" height="1e3" fill="#046380"/>
<g transform="matrix(.7 0 0 .7 149.58 282.13)">
<svg width="1e3" height="623" data-background-color="#046380" viewBox="0 0 396 247" xmlns="http://www.w3.org/2000/svg" xmlns:xlink="http://www.w3.org/1999/xlink">
<g transform="translate(.24 -.1)">
<svg width="395.52" height="247.2" viewBox="0 0 395.52 247.2">
<svg/>
<svg width="395.52" height="247.2" viewBox="0 0 395.52 247.2">
<mask id="a">
<rect width="395.52" height="247.2" fill="#fff"/>
<g transform="translate(52.163 37.08)">
<svg width="291.19" height="173.04" viewBox="0 0 291.1943364889409 173.04">
<svg width="291.19" height="173.04" viewBox="0 0 291.1943364889409 173.04">
<svg width="291.19" height="173.04" viewBox="0 0 395.52 235.03472500605886">
<svg width="395.52" height="235.03" viewBox="0 0 395.52 235.03472500605886">
<svg width="395.52" height="235.03" viewBox="0 0 395.52 235.03472500605886">
<svg width="395.52" height="140.09" viewBox="0 0 395.52 140.08510553926223">
<g>
<svg width="395.52" height="140.09" data-palette-color="#ffffff" viewBox="-2.067808210849762 -42.04999923706055 126.20780944824219 45.349998474121094">
<path class="wordmark-text-0" d="m2.45 0q-0.95 0-1.32-0.75-0.38-0.75-0.03-1.4l15.15-35.85q0.4-1.05 1.45-1.05 1 0 1.45 1.05l15.2 35.85q0.4 0.7-0.05 1.42-0.45 0.73-1.3 0.73-0.5 0-0.82-0.23-0.33-0.22-0.58-0.72l-14.7-35.05h1.6l-14.65 35.05q-0.2 0.5-0.55 0.72-0.35 0.23-0.85 0.23zm26.85-9.8h-23.15l1.2-2.7h20.8l1.15 2.7zm8.3 9.8q-0.95 0-1.33-0.75-0.37-0.75-0.02-1.4l15.15-35.85q0.4-1.05 1.45-1.05 1 0 1.45 1.05l15.2 35.85q0.4 0.7-0.05 1.42-0.45 0.73-1.3 0.73-0.5 0-0.83-0.23-0.32-0.22-0.57-0.72l-14.7-35.05h1.6l-14.65 35.05q-0.2 0.5-0.55 0.72-0.35 0.23-0.85 0.23zm26.85-9.8h-23.15l1.2-2.7h20.8l1.15 2.7zm13.35-6.9h-2q0.29-3.2 1.75-5.68 1.45-2.47 3.75-3.87 2.29-1.4 5.1-1.4 1.9 0 2.94 0.45 1.06 0.45 0.81 1.6-0.15 0.75-0.7 0.9t-1.33 0.02q-0.78-0.12-1.72-0.12-2.5 0-4.45 1.05t-3.06 2.87q-1.09 1.83-1.09 4.18zm-1.5 16.7q-0.66 0-1.08-0.43-0.42-0.42-0.42-1.07v-24.35q0-0.7 0.42-1.1t1.08-0.4q0.7 0 1.09 0.4 0.41 0.4 0.41 1.1v24.35q0 0.65-0.41 1.07-0.39 0.43-1.09 0.43zm30.89 0.3q-4 0-7.17-1.83-3.18-1.82-5-5-1.83-3.17-1.83-7.12 0-4 1.83-7.18 1.82-3.17 5-5 3.17-1.82 7.17-1.82t7.15 1.82q3.15 1.83 4.98 5 1.82 3.18 1.82 7.18 0 3.95-1.82 7.12-1.83 3.18-4.98 5-3.15 1.83-7.15 1.83zm0-2.8q3.15 0 5.63-1.48 2.47-1.47 3.9-4 1.42-2.52 1.42-5.72 0-3.15-1.42-5.68-1.43-2.52-3.9-4-2.48-1.47-5.63-1.47-3.1 0-5.6 1.47-2.5 1.48-3.95 4-1.45 2.53-1.45 5.73 0 3.15 1.45 5.67 1.45 2.53 3.95 4 2.5 1.48 5.6 1.48z" stroke="#000" stroke-linejoin="round" stroke-width="5"/>
</svg>
</g>
</svg>
<g transform="translate(2.5 158.22)">
<svg width="390.52" height="76.812" viewBox="0 0 390.52 76.812437926391">
<g>
<svg width="390.52" height="76.812" data-palette-color="#ffffff" viewBox="-3.0500000044703484 -37.29999923706055 34.14999961853027 40.29999923706055">
<path class="slogan-text-1" d="m-0.05 0 10.95-34.3h6.25l10.95 34.3h-5.35l-2.25-7.35h-13.3l-2.25 7.35h-5zm8.6-11.9h10.55l-4.3-14.05q-0.4-1.3-0.85-4.05h-0.2q-0.45 2.85-0.85 4.05l-4.35 14.05z" stroke="#000" stroke-linejoin="round" stroke-width="5"/>
</svg>
</g>
</svg>
</g>
</svg>
</svg>
</svg>
</svg>
</svg>
</g>
</mask>
<g mask="url(#a)">
<path d="m101 247.2c-4.009 0-6.795-1.583-8.356-4.748-1.604-3.165-1.667-6.119-0.19-8.862l95.905-226.94c1.688-4.431 4.748-6.647 9.179-6.647 4.22 0 7.28 2.216 9.179 6.647l96.221 226.94c1.688 2.954 1.583 5.951-0.316 8.989-1.899 3.081-4.642 4.621-8.23 4.621-2.11 0-3.84-0.485-5.191-1.456-1.393-0.928-2.617-2.448-3.671-4.558l-93.056-221.88h10.128l-92.739 221.88c-0.844 2.11-2.005 3.629-3.482 4.558-1.477 0.971-3.271 1.456-5.381 1.456zm169.97-62.037h-146.55l7.596-17.092h131.67z" fill="#fff" font-family="none" font-size="none" font-weight="none" stroke-dasharray="" stroke-miterlimit="10" text-anchor="none" style="mix-blend-mode:normal" data-fill-palette-color="tertiary" xmlns="http://www.w3.org/2000/svg"/>
</g>
<g transform="translate(52.163 37.08)">
<svg width="291.19" height="173.04" viewBox="0 0 291.1943364889409 173.04">
<svg width="291.19" height="173.04" viewBox="0 0 291.1943364889409 173.04">
<svg width="291.19" height="173.04" viewBox="0 0 395.52 235.03472500605886">
<svg width="395.52" height="235.03" viewBox="0 0 395.52 235.03472500605886">
<svg width="395.52" height="235.03" viewBox="0 0 395.52 235.03472500605886">
<svg width="395.52" height="140.09" viewBox="0 0 395.52 140.08510553926223">
<g>
<svg width="395.52" height="140.09" data-palette-color="#ffffff" viewBox="-2.067808210849762 -42.04999923706055 126.20780944824219 45.349998474121094">
<path class="wordmark-text-0" d="m2.45 0q-0.95 0-1.32-0.75-0.38-0.75-0.03-1.4l15.15-35.85q0.4-1.05 1.45-1.05 1 0 1.45 1.05l15.2 35.85q0.4 0.7-0.05 1.42-0.45 0.73-1.3 0.73-0.5 0-0.82-0.23-0.33-0.22-0.58-0.72l-14.7-35.05h1.6l-14.65 35.05q-0.2 0.5-0.55 0.72-0.35 0.23-0.85 0.23zm26.85-9.8h-23.15l1.2-2.7h20.8l1.15 2.7zm8.3 9.8q-0.95 0-1.33-0.75-0.37-0.75-0.02-1.4l15.15-35.85q0.4-1.05 1.45-1.05 1 0 1.45 1.05l15.2 35.85q0.4 0.7-0.05 1.42-0.45 0.73-1.3 0.73-0.5 0-0.83-0.23-0.32-0.22-0.57-0.72l-14.7-35.05h1.6l-14.65 35.05q-0.2 0.5-0.55 0.72-0.35 0.23-0.85 0.23zm26.85-9.8h-23.15l1.2-2.7h20.8l1.15 2.7zm13.35-6.9h-2q0.29-3.2 1.75-5.68 1.45-2.47 3.75-3.87 2.29-1.4 5.1-1.4 1.9 0 2.94 0.45 1.06 0.45 0.81 1.6-0.15 0.75-0.7 0.9t-1.33 0.02q-0.78-0.12-1.72-0.12-2.5 0-4.45 1.05t-3.06 2.87q-1.09 1.83-1.09 4.18zm-1.5 16.7q-0.66 0-1.08-0.43-0.42-0.42-0.42-1.07v-24.35q0-0.7 0.42-1.1t1.08-0.4q0.7 0 1.09 0.4 0.41 0.4 0.41 1.1v24.35q0 0.65-0.41 1.07-0.39 0.43-1.09 0.43zm30.89 0.3q-4 0-7.17-1.83-3.18-1.82-5-5-1.83-3.17-1.83-7.12 0-4 1.83-7.18 1.82-3.17 5-5 3.17-1.82 7.17-1.82t7.15 1.82q3.15 1.83 4.98 5 1.82 3.18 1.82 7.18 0 3.95-1.82 7.12-1.83 3.18-4.98 5-3.15 1.83-7.15 1.83zm0-2.8q3.15 0 5.63-1.48 2.47-1.47 3.9-4 1.42-2.52 1.42-5.72 0-3.15-1.42-5.68-1.43-2.52-3.9-4-2.48-1.47-5.63-1.47-3.1 0-5.6 1.47-2.5 1.48-3.95 4-1.45 2.53-1.45 5.73 0 3.15 1.45 5.67 1.45 2.53 3.95 4 2.5 1.48 5.6 1.48z" fill="#fff" data-fill-palette-color="primary"/>
</svg>
</g>
</svg>
<g transform="translate(2.5 158.22)">
<svg width="390.52" height="76.812" viewBox="0 0 390.52 76.812437926391">
<g>
<svg width="390.52" height="76.812" data-palette-color="#ffffff" viewBox="-3.0500000044703484 -37.29999923706055 34.14999961853027 40.29999923706055">
<path class="slogan-text-1" d="m-0.05 0 10.95-34.3h6.25l10.95 34.3h-5.35l-2.25-7.35h-13.3l-2.25 7.35h-5zm8.6-11.9h10.55l-4.3-14.05q-0.4-1.3-0.85-4.05h-0.2q-0.45 2.85-0.85 4.05l-4.35 14.05z" fill="#fff" data-fill-palette-color="secondary"/>
</svg>
</g>
</svg>
</g>
</svg>
</svg>
</svg>
</svg>
</svg>
</g>
</svg>
</svg>
<rect width="395.52" height="247.2" fill="none" visibility="hidden"/>
</g>
</svg>
</g>
</svg>
